<svg xmlns="http://www.w3.org/2000/svg" width="109" height="297" fill="#e1e4e8" xmlns:v="https://vecta.io/nano"><path d="M108.489.776c0 .172-.138.431-.415.604l-5.681 3.88c-.554.345-1.386.431-1.94.086s-.693-.862-.138-1.207l5.68-3.88a1.95 1.95 0 0 1 1.94 0c.277 0 .554.259.554.517zm-.831 294.877c0 .258-.139.431-.416.603a1.95 1.95 0 0 1-1.939 0l-5.958-3.794c-.554-.344-.416-.862.139-1.207s1.386-.258 1.94.087c1.94 1.379 3.88 2.586 5.819 3.707.277.172.416.431.416.604zM97.266 8.622c0 .172-.139.345-.277.517l-5.127 4.139c-.416.345-1.386.431-1.94.172s-.693-.862-.277-1.207l5.265-4.139c.416-.345 1.386-.431 1.94-.086.277.086.416.345.416.604zm-.97 279.357c0 .259-.139.517-.554.69-.554.345-1.524.258-1.94-.087l-5.265-4.138c-.416-.345-.416-.949.277-1.207.554-.259 1.524-.259 1.94.172l5.265 4.053c.138.086.277.344.277.517zM87.152 16.986c0 .172-.139.345-.277.517l-4.711 4.311c-.416.431-1.247.517-1.94.259s-.831-.776-.416-1.207l4.849-4.311c.416-.431 1.247-.517 1.94-.172.277.086.554.345.554.604zm-1.109 262.629c0 .259-.138.518-.554.69-.554.259-1.524.173-1.94-.172l-4.849-4.311c-.416-.431-.277-.949.416-1.207s1.524-.173 1.94.258l4.711 4.311c.139.087.277.259.277.431zM77.868 25.694c0 .172 0 .345-.277.431l-4.295 4.483c-.416.431-1.247.517-1.94.345-.693-.259-.831-.776-.554-1.207 1.386-1.552 2.91-3.018 4.434-4.484.416-.431 1.247-.517 1.94-.259.416.172.693.431.693.69zm-1.247 245.213c0 .259-.277.604-.693.776-.693.259-1.524.086-1.94-.259l-4.295-4.483c-.416-.431-.138-.949.554-1.207s1.524-.086 1.94.345l4.295 4.483c.139.086.139.173.139.345zm-7.343-236.16c0 .172 0 .259-.139.431l-3.88 4.57a1.73 1.73 0 0 1-1.801.345c-.693-.259-.97-.776-.554-1.121l4.018-4.656c.416-.431 1.247-.604 1.94-.345.139.172.416.431.416.776zm-.97 227.107c0 .345-.277.603-.693.776-.693.259-1.524.086-1.94-.345l-3.88-4.656c-.277-.431-.139-.948.554-1.121s1.524-.086 1.801.345l3.88 4.656c.138.086.277.172.277.345zM61.519 44.059c0 .086 0 .259-.139.345l-3.602 4.742c-.277.431-1.109.604-1.801.431s-.97-.69-.693-1.121l3.602-4.742c.277-.431 1.108-.604 1.801-.431.554.172.831.431.831.776zm-.831 208.483c0 .345-.277.604-.831.776-.693.172-1.524 0-1.801-.431-1.247-1.552-2.355-3.19-3.464-4.829-.277-.431 0-.948.693-1.12s1.524 0 1.801.431l3.464 4.742c0 .172.139.259.139.431zM54.591 53.63c0 .086 0 .259-.139.345l-3.187 4.828c-.277.431-1.108.69-1.801.517s-1.108-.69-.831-1.121l3.187-4.915c.277-.431 1.108-.604 1.801-.431.693.086.97.431.97.776zm-.693 189.255c0 .345-.277.69-.831.776-.693.173-1.524 0-1.801-.431l-3.048-4.915c-.277-.431.139-.948.831-1.12s1.524.086 1.801.517l3.048 4.828c-.139.173 0 .259 0 .345zM48.494 63.373c0 .086 0 .172-.139.259l-2.771 4.914c-.277.431-.97.69-1.801.517-.693-.172-1.108-.604-.831-1.121l2.771-5.001c.277-.431 1.108-.69 1.801-.517.554.259.97.604.97.948zm-.693 169.769c0 .345-.416.69-.97.776-.693.173-1.524-.086-1.801-.517l-2.771-5.001c-.277-.431.139-.948.831-1.121s1.524.086 1.801.517l2.771 4.915c.139.259.139.345.139.431zM43.091 73.288v.259l-2.355 5.001c-.277.431-.97.69-1.663.604-.693-.172-1.108-.604-.97-1.035l2.355-5.001c.277-.431.97-.69 1.801-.604.416.086.831.431.831.776zm-.554 149.853c0 .344-.416.689-.97.862-.693.172-1.524-.086-1.663-.604l-2.355-5.087c-.139-.431.277-.948.97-1.035s1.524.173 1.663.604l2.355 5.001v.259zM38.518 83.376v.259l-2.078 5.087c-.139.431-.97.776-1.663.604-.693-.086-1.247-.604-.97-1.035l2.078-5.087c.138-.431.97-.776 1.663-.604.554 0 .97.345.97.776zm-.416 129.677c0 .345-.416.776-1.108.862s-1.524-.173-1.663-.604l-1.94-5.087c-.139-.431.277-.948 1.108-1.034.693-.087 1.524.172 1.663.689l1.94 5.087v.087zM34.639 93.55v.172l-1.663 5.087c-.139.431-.831.776-1.663.69-.693-.086-1.247-.517-1.109-1.035l1.663-5.173c.139-.431.831-.776 1.663-.69.554.172 1.108.603 1.108.948zm-.277 109.329c0 .431-.416.776-1.108.862s-1.524-.173-1.663-.69l-1.663-5.173c-.139-.431.416-.949 1.108-1.035s1.524.259 1.663.69l1.663 5.087v.259zm-2.91-98.982v.172l-1.247 5.173c-.138.431-.831.776-1.524.69s-1.247-.517-1.108-.948l1.247-5.174c.138-.431.831-.776 1.663-.689.416 0 .97.344.97.776zm-.138 88.635c0 .431-.416.776-1.109.862s-1.524-.258-1.524-.69l-1.247-5.173c-.139-.517.416-.948 1.108-.948.693-.086 1.524.258 1.524.69l1.247 5.173v.086zm-2.356-78.289v.086l-.97 5.174c-.139.431-.693.776-1.524.776-.693-.087-1.247-.431-1.247-.949l.97-5.259c.139-.431.831-.776 1.524-.776.831.172 1.247.517 1.247.948zm0 67.942c0 .432-.554.776-1.247.863s-1.386-.259-1.524-.776l-.97-5.26c-.139-.517.416-.862 1.247-.948.693-.086 1.386.258 1.524.776l.97 5.173v.172zm-1.663-10.432c0 .431-.554.862-1.247.862-.831 0-1.386-.345-1.524-.776-.277-1.725-.416-3.449-.554-5.26 0-.431.554-.862 1.247-.948.831 0 1.386.345 1.524.776 0 1.811.277 3.535.554 5.346 0 0 0-.087 0 0zm0-47.077l-.693 5.259c0 .518-.693.863-1.524.776-.831 0-1.386-.431-1.247-.948.139-1.724.416-3.535.693-5.26 0-.517.693-.862 1.524-.776.693.087 1.247.518 1.247.949zm-1.108 36.644c0 .431-.554.862-1.386.862s-1.386-.345-1.386-.862l-.277-5.26c0-.431.554-.862 1.386-.862s1.386.345 1.386.862c0 1.725.139 3.449.277 5.26 0 0 0-.086 0 0zm0-26.211l-.277 5.259c0 .517-.693.862-1.386.862s-1.386-.431-1.386-.862l.277-5.259c0-.518.693-.863 1.386-.863.831 0 1.386.432 1.386.863zm-.416 15.692c0 .431-.554.862-1.386.862S23 151.318 23 150.801v-5.26c0-.517.693-.862 1.386-.862s1.386.431 1.386.862a33.34 33.34 0 0 0 0 5.26z"/><path d="M24.89 119.339l-.491 6.003c-.014.21-.126.309-.238.408l-4.703 2.345c.166-.942.01-1.799-.062-2.333l-3.163-.203c-.364.717-.625 3.136-.607 4.513L2.5 136.641l-.248 2.207 16.593-2.852c.646-.171 1.279-.13 1.911-.09l2.207.248c.211.014.31.126.296.337l-.41 4.737c-.234 1.997-.145 3.908-.042 5.609l-5.834 5.131-.22 1.785 7.009-1.985c.368.871.551 1.306.762 1.319s.561-.493.925-1.211l6.572 3.174.22-1.785-4.906-6.032c.418-1.561.75-3.445.984-5.442l.41-4.738c.014-.211.126-.309.337-.296l2.207.248c.633.04 1.252.292 1.884.332l15.827 5.78.247-2.207-11.716-8.798c.292-1.252.454-3.782.185-4.541l-3.163-.203c-.238.409-.404 1.351-.458 2.194l-4.14-3.124c-.099-.112-.197-.224-.184-.435l.491-6.003c.383-4.316-.962-8.108-1.904-8.274-1.041-.279-3.07 3.296-3.453 7.613z"/></svg>