<svg width="19" height="14" viewBox="0 0 19 14" fill="none" xmlns="http://www.w3.org/2000/svg">
<path d="M18.1168 2.00688C17.4718 2.27304 16.7846 2.44945 16.068 2.53511C16.8052 2.1211 17.3677 1.4705 17.6322 0.686317C16.945 1.07178 16.1862 1.34405 15.3775 1.49599C14.725 0.842338 13.7949 0.4375 12.7803 0.4375C10.8118 0.4375 9.22698 1.9406 9.22698 3.78328C9.22698 4.04841 9.25083 4.30335 9.30936 4.54605C6.35333 4.41042 3.73766 3.07762 1.98051 1.04731C1.67374 1.548 1.4938 2.1211 1.4938 2.73804C1.4938 3.89647 2.12794 4.92335 3.07317 5.51786C2.50191 5.50766 1.94149 5.35164 1.4667 5.10588C1.4667 5.11608 1.4667 5.12934 1.4667 5.14259C1.4667 6.76807 2.6992 8.11821 4.31543 8.42923C4.026 8.50367 3.71056 8.53936 3.3832 8.53936C3.15556 8.53936 2.92575 8.52712 2.71004 8.48225C3.17073 9.8069 4.47802 10.7808 6.03247 10.8124C4.82273 11.7026 3.28672 12.239 1.62388 12.239C1.33229 12.239 1.05262 12.2268 0.772949 12.1931C2.34799 13.1486 4.21462 13.6942 6.22758 13.6942C12.7705 13.6942 16.3477 8.59545 16.3477 4.17588C16.3477 4.02802 16.3423 3.88525 16.3347 3.74351C17.0404 3.27239 17.6333 2.68399 18.1168 2.00688Z" fill="#A3ABB5"/>
</svg>
